<svg version="1.1" id="Layer_1" xmlns="http://www.w3.org/2000/svg" xmlns:xlink="http://www.w3.org/1999/xlink" x="0px" y="0px"
	 width="100%" viewBox="0 0 966 158" enable-background="new 0 0 966 158" xml:space="preserve">
<path fill="#FFFEFD" opacity="1.000000" stroke="none" 
	d="
M706.000000,159.000000 
	C470.718903,159.000000 235.937775,159.000000 1.078335,159.000000 
	C1.078335,106.397369 1.078335,53.794590 1.078335,1.095904 
	C322.999969,1.095904 645.000000,1.095904 966.970947,1.095904 
	C966.970947,53.728844 966.970947,106.364433 966.970947,159.000000 
	C880.127930,159.000000 793.313965,159.000000 706.000000,159.000000 
M412.302948,110.235725 
	C402.472168,110.244293 392.639984,110.349922 382.811462,110.205421 
	C379.644897,110.158859 378.444763,111.081993 378.325409,114.418251 
	C378.183319,118.388306 379.511383,119.512573 383.447601,119.477501 
	C403.769928,119.296394 424.095337,119.476990 444.418091,119.322708 
	C448.319092,119.293098 449.740356,120.455025 449.595581,124.451752 
	C449.330444,131.773422 449.405945,139.115875 449.644135,146.439743 
	C449.688354,147.799500 450.968781,150.040970 452.020691,150.264297 
	C454.639191,150.820221 457.454865,150.447296 460.055298,150.447296 
	C460.055298,136.579269 460.055298,123.665024 460.055298,110.256653 
	C449.823090,110.256653 440.015259,110.158264 430.211426,110.313583 
	C427.063843,110.363449 425.621368,109.526031 425.789520,106.133125 
	C426.003693,101.812027 426.011505,97.460709 425.760101,93.142693 
	C425.549683,89.527885 427.068420,88.644081 430.437592,88.688530 
	C442.599060,88.848930 454.763916,88.754738 466.927490,88.752083 
	C474.657043,88.750397 475.398865,87.683670 472.810852,79.501434 
	C467.759644,79.501434 462.525116,79.501434 457.438354,79.501434 
	C458.714539,65.487175 459.941742,52.010700 461.189484,38.308834 
	C433.497040,38.308834 407.090576,38.308834 380.474701,38.308834 
	C380.474701,41.207619 380.474701,43.752220 380.474701,46.972683 
	C403.565674,46.972683 426.285919,46.972683 450.121277,46.972683 
	C449.059052,56.478203 447.896088,65.178917 447.186768,73.916466 
	C446.803711,78.635468 444.702271,79.969017 440.147064,79.914139 
	C418.661346,79.655304 397.172028,79.680130 375.683929,79.654633 
	C372.936676,79.651375 370.189056,79.945778 367.402557,80.104515 
	C367.402557,83.201172 367.402557,85.630966 367.402557,88.885483 
	C383.369965,88.885483 399.056641,88.885483 415.056488,88.885483 
	C415.056488,95.688690 415.127777,101.670288 414.976624,107.646255 
	C414.954926,108.503197 413.859406,109.332970 412.302948,110.235725 
M307.500000,37.126122 
	C294.170959,37.127449 280.841187,37.206371 267.513489,37.073360 
	C264.339935,37.041691 263.071045,37.916569 263.127258,41.285221 
	C263.299652,51.612305 263.277557,61.945431 263.131470,72.273384 
	C263.085785,75.502045 264.153168,76.720932 267.445068,76.641998 
	C274.605103,76.470314 281.772766,76.559120 288.936615,76.619461 
	C299.357544,76.707237 298.072754,74.911987 298.340546,86.342979 
	C298.428040,90.077545 297.159698,91.259148 293.465393,91.202606 
	C281.305511,91.016502 269.141083,91.121964 256.978424,91.119667 
	C249.557861,91.118271 248.870926,92.125145 251.171890,99.679626 
	C286.240997,99.679626 321.326843,99.679626 356.696533,99.679626 
	C356.696533,96.803154 356.696533,94.251343 356.696533,90.945908 
	C340.684235,90.945908 324.984039,90.945908 309.375122,90.945908 
	C309.375122,85.780602 309.375122,81.379036 309.375122,76.600876 
	C319.117645,76.600876 328.432922,76.608543 337.748230,76.598396 
	C344.955780,76.590546 345.623474,75.647186 343.464050,67.609970 
	C320.600250,67.609970 297.532684,67.609970 273.973877,67.609970 
	C273.973877,61.752316 274.258911,56.592300 273.888275,51.479813 
	C273.562195,46.981453 275.216919,45.843552 279.555695,45.889488 
	C299.546997,46.101154 319.542053,45.928192 339.534943,46.042103 
	C342.750366,46.060421 343.943115,45.110638 343.907257,41.788677 
	C343.872192,38.538654 343.221710,36.982986 339.488251,37.063801 
	C329.163208,37.287296 318.829987,37.131966 307.500000,37.126122 
M296.802917,108.343269 
	C292.354401,108.969185 287.886475,109.485573 283.465790,110.268623 
	C281.352295,110.642982 279.298279,111.441391 277.269073,112.188240 
	C268.217560,115.519608 263.164337,121.560341 263.120209,129.008041 
	C263.076782,136.343811 268.057098,142.759003 277.298920,145.768616 
	C295.089905,151.562271 313.046265,151.311707 330.810730,145.559647 
	C336.491516,143.720230 341.227325,140.152359 343.400299,134.237656 
	C346.717377,125.208656 341.836212,116.482010 331.215271,112.454994 
	C320.415527,108.360191 309.131653,107.826401 296.802917,108.343269 
M623.926025,97.423912 
	C646.464905,86.279137 660.766357,63.780472 659.335205,41.203316 
	C657.602600,41.203316 655.809387,41.204197 654.016174,41.203178 
	C641.020935,41.195786 628.025696,41.175476 615.030457,41.185181 
	C607.555725,41.190762 606.929260,42.109928 609.297607,50.399269 
	C622.111877,50.399269 635.140991,50.399269 648.184814,50.399269 
	C647.567810,61.095600 646.870178,61.741203 637.243347,62.247238 
	C631.759705,62.535480 626.290710,63.092163 620.811707,63.479469 
	C614.932190,63.895088 609.048645,64.253860 603.208374,64.634743 
	C603.602478,74.143623 604.129700,74.467232 612.440247,73.489815 
	C621.415222,72.434242 630.428284,71.702797 640.599426,70.716011 
	C631.081055,84.965202 617.348145,90.654144 603.309509,95.800476 
	C608.252441,104.442673 608.257629,104.454720 616.465881,100.907036 
	C618.758118,99.916321 621.009827,98.831673 623.926025,97.423912 
M46.497147,9.074268 
	C35.413296,9.074268 24.329447,9.074268 13.227857,9.074268 
	C13.227857,33.294762 13.227857,56.785648 13.227857,80.669312 
	C16.813944,80.669312 19.969557,80.462250 23.085873,80.723648 
	C26.683460,81.025421 27.574894,79.572189 27.541737,76.135735 
	C27.386051,59.999783 27.470345,43.861374 27.507309,27.723927 
	C27.511288,25.986809 27.763826,24.250259 27.936892,22.060030 
	C39.718624,22.060030 50.958607,22.060030 62.358208,22.060030 
	C62.358208,17.522026 62.358208,13.497167 62.358208,9.074440 
	C57.108303,9.074440 52.301617,9.074440 46.497147,9.074268 
M554.538208,143.742584 
	C558.805298,144.417038 560.226074,142.879074 560.198120,138.329498 
	C559.996948,105.537926 560.100403,72.744514 560.085632,39.951694 
	C560.084839,38.193779 559.889587,36.435955 559.779175,34.581623 
	C558.460999,34.432568 557.656006,34.284847 556.847107,34.258965 
	C549.753113,34.031963 549.759583,34.038391 549.775879,41.126358 
	C549.792725,48.450611 549.796265,55.774895 549.803284,63.099167 
	C549.810913,71.039566 549.809753,71.050331 542.094238,71.068993 
	C535.515137,71.084908 528.935913,71.072289 522.496216,71.072289 
	C521.443542,79.863815 521.443542,79.866936 529.031799,79.873108 
	C534.025635,79.877167 539.041138,80.159286 544.006897,79.784973 
	C548.666626,79.433739 549.932007,81.123718 549.870178,85.689102 
	C549.629089,103.497116 549.813660,121.310555 549.742798,139.121582 
	C549.731506,141.971252 549.965881,144.198151 554.538208,143.742584 
M490.228027,58.506519 
	C490.225891,77.336960 490.298737,96.167969 490.154205,114.997314 
	C490.127380,118.491348 491.227203,119.801651 494.721710,119.597221 
	C502.535400,119.140121 510.382629,119.144806 518.176270,118.487946 
	C525.709961,117.852997 533.193604,116.624542 541.086487,115.606873 
	C540.455994,111.974678 539.987854,109.277489 539.571106,106.876778 
	C526.513428,108.125916 514.029297,109.320183 500.721466,110.593246 
	C500.721466,87.640083 500.721466,65.935524 500.721466,44.335430 
	C490.220062,43.102886 490.219238,43.102886 490.215637,52.511677 
	C490.214996,54.178078 490.224548,55.844482 490.228027,58.506519 
M658.488770,125.173988 
	C667.257751,135.985703 677.991577,144.081543 691.128723,148.895340 
	C698.621094,151.640762 700.630676,150.587753 702.621094,143.788818 
	C693.788757,139.079605 684.811462,135.107559 676.756104,129.749512 
	C669.871948,125.170502 665.050415,118.416069 664.475098,109.527229 
	C663.992188,102.066689 663.961914,102.057579 656.678650,102.270752 
	C655.722717,102.298737 654.772095,102.508392 653.701172,102.649422 
	C653.382751,129.372314 633.632874,136.478943 613.351379,142.926590 
	C617.595581,151.398422 618.098633,151.623535 626.251160,148.704956 
	C639.085449,144.110336 650.162903,137.111588 658.488770,125.173988 
M677.417603,65.916061 
	C671.995117,65.916061 666.572632,65.916061 661.189941,65.916061 
	C661.189941,69.330360 661.189941,71.897217 661.189941,75.135910 
	C669.793335,75.135910 678.005920,75.135910 686.770020,75.135910 
	C686.770020,87.224052 686.770020,98.638466 686.770020,110.323700 
	C690.414001,110.323700 693.470276,110.323700 696.662598,110.323700 
	C696.662598,83.949768 696.662598,57.923965 696.662598,31.683226 
	C695.129578,31.584969 693.978882,31.599432 692.857910,31.423948 
	C688.265747,30.705029 686.284363,32.150864 686.626221,37.243923 
	C687.082458,44.040962 686.726746,50.892445 686.721130,57.720543 
	C686.713501,67.035194 687.621155,65.804443 677.417603,65.916061 
M938.344482,109.993172 
	C930.517761,107.401947 923.552673,109.302551 919.171692,115.224823 
	C914.995789,120.870132 914.876404,128.162872 918.866211,133.888519 
	C922.638000,139.301376 929.226746,141.915939 935.474731,140.479218 
	C941.918274,138.997528 946.895203,133.888031 947.964478,127.656860 
	C949.193359,120.495644 946.183960,114.630135 938.344482,109.993172 
M583.947876,86.500000 
	C583.948486,69.670784 583.808228,52.839558 584.048645,36.013767 
	C584.108887,31.795376 582.523743,30.923973 578.794006,31.091974 
	C575.422424,31.243843 572.864624,30.885975 572.893188,35.886124 
	C573.100708,72.209526 573.096008,108.535316 572.876221,144.858627 
	C572.846008,149.860275 575.165466,149.948578 578.911194,150.072296 
	C582.845947,150.202286 584.082947,148.987335 584.042664,144.985184 
	C583.849731,125.825081 583.951050,106.662010 583.947876,86.500000 
z"/>
<path fill="#F17C28" opacity="1.000000" stroke="none" 
	d="
M412.781921,110.205521 
	C413.859406,109.332970 414.954926,108.503197 414.976624,107.646255 
	C415.127777,101.670288 415.056488,95.688690 415.056488,88.885483 
	C399.056641,88.885483 383.369965,88.885483 367.402557,88.885483 
	C367.402557,85.630966 367.402557,83.201172 367.402557,80.104515 
	C370.189056,79.945778 372.936676,79.651375 375.683929,79.654633 
	C397.172028,79.680130 418.661346,79.655304 440.147064,79.914139 
	C444.702271,79.969017 446.803711,78.635468 447.186768,73.916466 
	C447.896088,65.178917 449.059052,56.478203 450.121277,46.972683 
	C426.285919,46.972683 403.565674,46.972683 380.474701,46.972683 
	C380.474701,43.752220 380.474701,41.207619 380.474701,38.308834 
	C407.090576,38.308834 433.497040,38.308834 461.189484,38.308834 
	C459.941742,52.010700 458.714539,65.487175 457.438354,79.501434 
	C462.525116,79.501434 467.759644,79.501434 472.810852,79.501434 
	C475.398865,87.683670 474.657043,88.750397 466.927490,88.752083 
	C454.763916,88.754738 442.599060,88.848930 430.437592,88.688530 
	C427.068420,88.644081 425.549683,89.527885 425.760101,93.142693 
	C426.011505,97.460709 426.003693,101.812027 425.789520,106.133125 
	C425.621368,109.526031 427.063843,110.363449 430.211426,110.313583 
	C440.015259,110.158264 449.823090,110.256653 460.055298,110.256653 
	C460.055298,123.665024 460.055298,136.579269 460.055298,150.447296 
	C457.454865,150.447296 454.639191,150.820221 452.020691,150.264297 
	C450.968781,150.040970 449.688354,147.799500 449.644135,146.439743 
	C449.405945,139.115875 449.330444,131.773422 449.595581,124.451752 
	C449.740356,120.455025 448.319092,119.293098 444.418091,119.322708 
	C424.095337,119.476990 403.769928,119.296394 383.447601,119.477501 
	C379.511383,119.512573 378.183319,118.388306 378.325409,114.418251 
	C378.444763,111.081993 379.644897,110.158859 382.811462,110.205421 
	C392.639984,110.349922 402.472168,110.244293 412.781921,110.205521 
z"/>
<path fill="#F17C28" opacity="1.000000" stroke="none" 
	d="
M308.000000,37.126259 
	C318.829987,37.131966 329.163208,37.287296 339.488251,37.063801 
	C343.221710,36.982986 343.872192,38.538654 343.907257,41.788677 
	C343.943115,45.110638 342.750366,46.060421 339.534943,46.042103 
	C319.542053,45.928192 299.546997,46.101154 279.555695,45.889488 
	C275.216919,45.843552 273.562195,46.981453 273.888275,51.479813 
	C274.258911,56.592300 273.973877,61.752316 273.973877,67.609970 
	C297.532684,67.609970 320.600250,67.609970 343.464050,67.609970 
	C345.623474,75.647186 344.955780,76.590546 337.748230,76.598396 
	C328.432922,76.608543 319.117645,76.600876 309.375122,76.600876 
	C309.375122,81.379036 309.375122,85.780602 309.375122,90.945908 
	C324.984039,90.945908 340.684235,90.945908 356.696533,90.945908 
	C356.696533,94.251343 356.696533,96.803154 356.696533,99.679626 
	C321.326843,99.679626 286.240997,99.679626 251.171890,99.679626 
	C248.870926,92.125145 249.557861,91.118271 256.978424,91.119667 
	C269.141083,91.121964 281.305511,91.016502 293.465393,91.202606 
	C297.159698,91.259148 298.428040,90.077545 298.340546,86.342979 
	C298.072754,74.911987 299.357544,76.707237 288.936615,76.619461 
	C281.772766,76.559120 274.605103,76.470314 267.445068,76.641998 
	C264.153168,76.720932 263.085785,75.502045 263.131470,72.273384 
	C263.277557,61.945431 263.299652,51.612305 263.127258,41.285221 
	C263.071045,37.916569 264.339935,37.041691 267.513489,37.073360 
	C280.841187,37.206371 294.170959,37.127449 308.000000,37.126259 
z"/>
<path fill="#F17B26" opacity="1.000000" stroke="none" 
	d="
M297.273010,108.319031 
	C309.131653,107.826401 320.415527,108.360191 331.215271,112.454994 
	C341.836212,116.482010 346.717377,125.208656 343.400299,134.237656 
	C341.227325,140.152359 336.491516,143.720230 330.810730,145.559647 
	C313.046265,151.311707 295.089905,151.562271 277.298920,145.768616 
	C268.057098,142.759003 263.076782,136.343811 263.120209,129.008041 
	C263.164337,121.560341 268.217560,115.519608 277.269073,112.188240 
	C279.298279,111.441391 281.352295,110.642982 283.465790,110.268623 
	C287.886475,109.485573 292.354401,108.969185 297.273010,108.319031 
M315.554443,140.149979 
	C317.843109,139.741165 320.168182,139.473984 322.413696,138.897125 
	C329.339844,137.117874 333.567749,133.331573 333.610718,129.051132 
	C333.653961,124.743637 329.637756,120.152672 322.550751,119.240067 
	C312.585327,117.956810 302.424255,117.558563 292.375580,117.832947 
	C287.616302,117.962906 282.588043,119.890205 278.282104,122.148254 
	C272.340820,125.263855 272.459198,132.236801 278.165131,135.839874 
	C280.506287,137.318207 283.269043,138.779800 285.934204,138.977097 
	C295.491058,139.684540 305.088196,139.848129 315.554443,140.149979 
z"/>
<path fill="#F17C27" opacity="1.000000" stroke="none" 
	d="
M623.603027,97.607025 
	C621.009827,98.831673 618.758118,99.916321 616.465881,100.907036 
	C608.257629,104.454720 608.252441,104.442673 603.309509,95.800476 
	C617.348145,90.654144 631.081055,84.965202 640.599426,70.716011 
	C630.428284,71.702797 621.415222,72.434242 612.440247,73.489815 
	C604.129700,74.467232 603.602478,74.143623 603.208374,64.634743 
	C609.048645,64.253860 614.932190,63.895088 620.811707,63.479469 
	C626.290710,63.092163 631.759705,62.535480 637.243347,62.247238 
	C646.870178,61.741203 647.567810,61.095600 648.184814,50.399269 
	C635.140991,50.399269 622.111877,50.399269 609.297607,50.399269 
	C606.929260,42.109928 607.555725,41.190762 615.030457,41.185181 
	C628.025696,41.175476 641.020935,41.195786 654.016174,41.203178 
	C655.809387,41.204197 657.602600,41.203316 659.335205,41.203316 
	C660.766357,63.780472 646.464905,86.279137 623.603027,97.607025 
z"/>
<path fill="#F44B17" opacity="1.000000" stroke="none" 
	d="
M46.996040,9.074354 
	C52.301617,9.074440 57.108303,9.074440 62.358208,9.074440 
	C62.358208,13.497167 62.358208,17.522026 62.358208,22.060030 
	C50.958607,22.060030 39.718624,22.060030 27.936892,22.060030 
	C27.763826,24.250259 27.511288,25.986809 27.507309,27.723927 
	C27.470345,43.861374 27.386051,59.999783 27.541737,76.135735 
	C27.574894,79.572189 26.683460,81.025421 23.085873,80.723648 
	C19.969557,80.462250 16.813944,80.669312 13.227857,80.669312 
	C13.227857,56.785648 13.227857,33.294762 13.227857,9.074268 
	C24.329447,9.074268 35.413296,9.074268 46.996040,9.074354 
z"/>
<path fill="#EF7A25" opacity="1.000000" stroke="none" 
	d="
M554.090271,143.740509 
	C549.965881,144.198151 549.731506,141.971252 549.742798,139.121582 
	C549.813660,121.310555 549.629089,103.497116 549.870178,85.689102 
	C549.932007,81.123718 548.666626,79.433739 544.006897,79.784973 
	C539.041138,80.159286 534.025635,79.877167 529.031799,79.873108 
	C521.443542,79.866936 521.443542,79.863815 522.496216,71.072289 
	C528.935913,71.072289 535.515137,71.084908 542.094238,71.068993 
	C549.809753,71.050331 549.810913,71.039566 549.803284,63.099167 
	C549.796265,55.774895 549.792725,48.450611 549.775879,41.126358 
	C549.759583,34.038391 549.753113,34.031963 556.847107,34.258965 
	C557.656006,34.284847 558.460999,34.432568 559.779175,34.581623 
	C559.889587,36.435955 560.084839,38.193779 560.085632,39.951694 
	C560.100403,72.744514 559.996948,105.537926 560.198120,138.329498 
	C560.226074,142.879074 558.805298,144.417038 554.090271,143.740509 
z"/>
<path fill="#F17D28" opacity="1.000000" stroke="none" 
	d="
M490.228699,58.008701 
	C490.224548,55.844482 490.214996,54.178078 490.215637,52.511677 
	C490.219238,43.102886 490.220062,43.102886 500.721466,44.335430 
	C500.721466,65.935524 500.721466,87.640083 500.721466,110.593246 
	C514.029297,109.320183 526.513428,108.125916 539.571106,106.876778 
	C539.987854,109.277489 540.455994,111.974678 541.086487,115.606873 
	C533.193604,116.624542 525.709961,117.852997 518.176270,118.487946 
	C510.382629,119.144806 502.535400,119.140121 494.721710,119.597221 
	C491.227203,119.801651 490.127380,118.491348 490.154205,114.997314 
	C490.298737,96.167969 490.225891,77.336960 490.228699,58.008701 
z"/>
<path fill="#F27B26" opacity="1.000000" stroke="none" 
	d="
M658.184326,125.351891 
	C650.162903,137.111588 639.085449,144.110336 626.251160,148.704956 
	C618.098633,151.623535 617.595581,151.398422 613.351379,142.926590 
	C633.632874,136.478943 653.382751,129.372314 653.701172,102.649422 
	C654.772095,102.508392 655.722717,102.298737 656.678650,102.270752 
	C663.961914,102.057579 663.992188,102.066689 664.475098,109.527229 
	C665.050415,118.416069 669.871948,125.170502 676.756104,129.749512 
	C684.811462,135.107559 693.788757,139.079605 702.621094,143.788818 
	C700.630676,150.587753 698.621094,151.640762 691.128723,148.895340 
	C677.991577,144.081543 667.257751,135.985703 658.184326,125.351891 
z"/>
<path fill="#F27820" opacity="1.000000" stroke="none" 
	d="
M677.901489,65.915977 
	C687.621155,65.804443 686.713501,67.035194 686.721130,57.720543 
	C686.726746,50.892445 687.082458,44.040962 686.626221,37.243923 
	C686.284363,32.150864 688.265747,30.705029 692.857910,31.423948 
	C693.978882,31.599432 695.129578,31.584969 696.662598,31.683226 
	C696.662598,57.923965 696.662598,83.949768 696.662598,110.323700 
	C693.470276,110.323700 690.414001,110.323700 686.770020,110.323700 
	C686.770020,98.638466 686.770020,87.224052 686.770020,75.135910 
	C678.005920,75.135910 669.793335,75.135910 661.189941,75.135910 
	C661.189941,71.897217 661.189941,69.330360 661.189941,65.916061 
	C666.572632,65.916061 671.995117,65.916061 677.901489,65.915977 
z"/>
<path fill="#F64B16" opacity="1.000000" stroke="none" 
	d="
M938.692871,110.129211 
	C946.183960,114.630135 949.193359,120.495644 947.964478,127.656860 
	C946.895203,133.888031 941.918274,138.997528 935.474731,140.479218 
	C929.226746,141.915939 922.638000,139.301376 918.866211,133.888519 
	C914.876404,128.162872 914.995789,120.870132 919.171692,115.224823 
	C923.552673,109.302551 930.517761,107.401947 938.692871,110.129211 
z"/>
<path fill="#E99557" opacity="1.000000" stroke="none" 
	d="
M583.947876,87.000000 
	C583.951050,106.662010 583.849731,125.825081 584.042664,144.985184 
	C584.082947,148.987335 582.845947,150.202286 578.911194,150.072296 
	C575.165466,149.948578 572.846008,149.860275 572.876221,144.858627 
	C573.096008,108.535316 573.100708,72.209526 572.893188,35.886124 
	C572.864624,30.885975 575.422424,31.243843 578.794006,31.091974 
	C582.523743,30.923973 584.108887,31.795376 584.048645,36.013767 
	C583.808228,52.839558 583.948486,69.670784 583.947876,87.000000 
M582.067871,87.500000 
	C582.069763,71.180389 582.028259,54.860554 582.112671,38.541370 
	C582.128296,35.529987 581.724792,33.071449 578.084839,33.056931 
	C574.540710,33.042789 574.934448,35.804211 574.933472,38.105068 
	C574.919006,73.075775 574.930847,108.046494 574.909363,143.017181 
	C574.907715,145.727982 575.061646,147.996780 578.708923,148.097855 
	C582.888611,148.213669 582.050232,145.304123 582.054199,142.954391 
	C582.085327,124.802971 582.069397,106.651474 582.067871,87.500000 
z"/>
<path fill="#FEFAF3" opacity="1.000000" stroke="none" 
	d="
M315.112274,140.183655 
	C305.088196,139.848129 295.491058,139.684540 285.934204,138.977097 
	C283.269043,138.779800 280.506287,137.318207 278.165131,135.839874 
	C272.459198,132.236801 272.340820,125.263855 278.282104,122.148254 
	C282.588043,119.890205 287.616302,117.962906 292.375580,117.832947 
	C302.424255,117.558563 312.585327,117.956810 322.550751,119.240067 
	C329.637756,120.152672 333.653961,124.743637 333.610718,129.051132 
	C333.567749,133.331573 329.339844,137.117874 322.413696,138.897125 
	C320.168182,139.473984 317.843109,139.741165 315.112274,140.183655 
z"/>
<path fill="#FA7414" opacity="1.000000" stroke="none" 
	d="
M582.067993,88.000000 
	C582.069397,106.651474 582.085327,124.802971 582.054199,142.954391 
	C582.050232,145.304123 582.888611,148.213669 578.708923,148.097855 
	C575.061646,147.996780 574.907715,145.727982 574.909363,143.017181 
	C574.930847,108.046494 574.919006,73.075775 574.933472,38.105068 
	C574.934448,35.804211 574.540710,33.042789 578.084839,33.056931 
	C581.724792,33.071449 582.128296,35.529987 582.112671,38.541370 
	C582.028259,54.860554 582.069763,71.180389 582.067993,88.000000 
z"/>
</svg>